#N canvas 418 286 937 456 12;
#X obj 152 292 hip~ 5;
#X obj 208 292 hip~ 5;
#X obj 252 101 bng 15 250 50 0 empty empty load 17 7 0 10 -262144 -1
-1;
#X obj 202 101 tgl 15 0 empty empty loop 17 7 0 10 -262144 -1 -1 0
1;
#X obj 152 101 tgl 15 0 empty empty play 17 7 0 10 -262144 -1 -1 0
1;
#X obj 33 32 tgl 15 0 empty empty on/off 17 7 0 10 -262144 -1 -1 0
1;
#X msg 33 57 \; pd dsp \$1;
#X msg 482 213 bang;
#X obj 490 371 i;
#X obj 525 371 + 1;
#X obj 482 243 t b b;
#X msg 514 273 0;
#X floatatom 490 397 5 0 0 0 - - -;
#X obj 472 333 metro 1000;
#X msg 472 273 1;
#X obj 514 303 t f f;
#X obj 592 273 print done;
#X obj 168 396 dac~;
#X obj 482 86 bng 15 250 50 0 empty empty empty 17 7 0 10 -262144 -1
-1;
#X obj 560 243 qlist;
#X obj 152 200 magnetic_lighthouse~;
#X msg 560 213 read magnetic_lighthouse.txt;
#X obj 560 303 print qlist;
#X obj 152 337 *~;
#X obj 208 337 *~;
#X obj 274 322 hsl 128 15 0 1 0 0 empty empty Master_Out -2 -8 0 10
-262144 -1 -1 0 1;
#X obj 152 116 fileplay~;
#X text 270 116 1 - Pick a soundfile (at least 3 minutes long) to play
using the load button, f 22;
#X text 273 272 4 - Make sure the sound is turned up, f 18;
#X text 570 175 2 - Load the qlist by hitting this button, f 21;
#X text 412 32 5 - Hit the bang here and it should start playing,
f 22;
#X text 99 28 3 - Turn on the dsp;
#X text 611 394 Created by Dominic Frugoli - December 2022;
#X connect 0 0 23 0;
#X connect 1 0 24 0;
#X connect 2 0 26 2;
#X connect 3 0 26 1;
#X connect 4 0 26 0;
#X connect 5 0 6 0;
#X connect 7 0 10 0;
#X connect 7 0 19 0;
#X connect 8 0 9 0;
#X connect 8 0 12 0;
#X connect 9 0 8 1;
#X connect 10 0 14 0;
#X connect 10 1 11 0;
#X connect 11 0 15 0;
#X connect 13 0 8 0;
#X connect 14 0 13 0;
#X connect 15 0 13 0;
#X connect 15 1 8 1;
#X connect 18 0 4 0;
#X connect 18 0 7 0;
#X connect 19 0 22 0;
#X connect 19 1 16 0;
#X connect 20 0 0 0;
#X connect 20 1 1 0;
#X connect 21 0 19 0;
#X connect 23 0 17 0;
#X connect 24 0 17 1;
#X connect 25 0 23 1;
#X connect 25 0 24 1;
#X connect 26 0 20 0;
#X connect 26 1 20 1;
