#N canvas 486 25 794 799 12;
#X obj 57 719 *~;
#X obj 142 719 *~;
#N canvas 198 177 1069 674 FilterStage 0;
#X obj 164 23 inlet~ FilterInLeft;
#X obj 500 15 inlet~ FilterInRight;
#X obj 169 499 outlet~ FilterOutLeft;
#X obj 505 513 outlet~ FilterOutRight;
#X obj 209 362 bob~, f 5;
#X obj 545 361 bob~, f 5;
#X obj 653 167 vline~;
#X obj 561 248 line~;
#X msg 561 221 \$1 30;
#X obj 561 195 int 20000;
#X obj 561 167 loadbang;
#X obj 561 284 -~;
#X obj 322 168 vline~;
#X obj 225 249 line~;
#X msg 225 222 \$1 30;
#X obj 225 196 int 20000;
#X obj 225 168 loadbang;
#X obj 225 285 -~;
#X obj 555 42 inlet toggle;
#X msg 653 139 1 3000 \, 0 3000 3000;
#X msg 322 140 1 3000 \, 0 3000 3000;
#X text 750 200 0...19750;
#X text 605 361 20000...250;
#X obj 241 312 loadbang;
#X obj 577 312 loadbang;
#X obj 241 338 f 1.75;
#X obj 577 338 f 1.75;
#X obj 653 89 delay 750;
#X obj 555 70 metro 5000;
#X obj 322 196 *~ 19750;
#X obj 653 195 *~ 19750;
#X obj 861 347 inlet~ FilterMix;
#N canvas 0 25 532 496 crossfade 0;
#X obj 85 66 inlet~;
#X obj 253 70 inlet~;
#X obj 174 374 outlet~;
#X obj 188 184 -~ 1;
#X obj 102 233 -~ 1;
#X obj 271 233 +~ 1;
#X obj 84 301 *~;
#X obj 253 301 *~;
#X obj 102 268 *~ -0.5;
#X obj 271 268 *~ 0.5;
#X text 303 110 Converts number inlet into a signal so it is a smooth
transition without crackles, f 28;
#X text 123 184 -1 to 1;
#X text 321 233 0 to 2;
#X text 330 267 0 to 1;
#X text 140 233 -2 to 0;
#X text 162 268 1 to 0;
#X text 286 304 gR;
#X text 116 303 gL;
#X text 129 154 0 to 2;
#X obj 188 153 *~ 2;
#X obj 332 69 inlet~ position;
#X connect 0 0 6 0;
#X connect 1 0 7 0;
#X connect 3 0 4 0;
#X connect 3 0 5 0;
#X connect 4 0 8 0;
#X connect 5 0 9 0;
#X connect 6 0 2 0;
#X connect 7 0 2 0;
#X connect 8 0 6 1;
#X connect 9 0 7 1;
#X connect 19 0 3 0;
#X connect 20 0 19 0;
#X restore 505 448 pd crossfade;
#N canvas 0 25 532 496 crossfade 0;
#X obj 85 66 inlet~;
#X obj 253 70 inlet~;
#X obj 174 374 outlet~;
#X obj 188 184 -~ 1;
#X obj 102 233 -~ 1;
#X obj 271 233 +~ 1;
#X obj 84 301 *~;
#X obj 253 301 *~;
#X obj 102 268 *~ -0.5;
#X obj 271 268 *~ 0.5;
#X text 303 110 Converts number inlet into a signal so it is a smooth
transition without crackles, f 28;
#X text 123 184 -1 to 1;
#X text 321 233 0 to 2;
#X text 330 267 0 to 1;
#X text 140 233 -2 to 0;
#X text 162 268 1 to 0;
#X text 286 304 gR;
#X text 116 303 gL;
#X text 129 154 0 to 2;
#X obj 188 153 *~ 2;
#X obj 332 69 inlet~ position;
#X connect 0 0 6 0;
#X connect 1 0 7 0;
#X connect 3 0 4 0;
#X connect 3 0 5 0;
#X connect 4 0 8 0;
#X connect 5 0 9 0;
#X connect 6 0 2 0;
#X connect 7 0 2 0;
#X connect 8 0 6 1;
#X connect 9 0 7 1;
#X connect 19 0 3 0;
#X connect 20 0 19 0;
#X restore 169 442 pd crossfade;
#X connect 0 0 4 0;
#X connect 0 0 33 0;
#X connect 1 0 5 0;
#X connect 1 0 32 0;
#X connect 4 0 33 1;
#X connect 5 0 32 1;
#X connect 6 0 30 0;
#X connect 7 0 11 0;
#X connect 8 0 7 0;
#X connect 9 0 8 0;
#X connect 10 0 9 0;
#X connect 11 0 5 1;
#X connect 12 0 29 0;
#X connect 13 0 17 0;
#X connect 14 0 13 0;
#X connect 15 0 14 0;
#X connect 16 0 15 0;
#X connect 17 0 4 1;
#X connect 18 0 28 0;
#X connect 19 0 6 0;
#X connect 20 0 12 0;
#X connect 23 0 25 0;
#X connect 24 0 26 0;
#X connect 25 0 4 2;
#X connect 26 0 5 2;
#X connect 27 0 19 0;
#X connect 28 0 20 0;
#X connect 28 0 27 0;
#X connect 29 0 17 1;
#X connect 30 0 11 1;
#X connect 31 0 32 2;
#X connect 31 0 33 2;
#X connect 32 0 3 0;
#X connect 33 0 2 0;
#X restore 57 452 pd FilterStage;
#N canvas 648 25 721 470 AMstage 0;
#N canvas 143 32 771 550 tri 0;
#X obj 103 111 phasor~;
#X obj 103 146 -~ 0.5;
#X text 168 116 0...1;
#X text 160 147 -0.5...0.5;
#X obj 103 175 abs~;
#X text 161 174 0.5...0...0.5;
#X obj 103 203 *~ 4;
#X text 163 201 2...0...2;
#X obj 103 233 -~ 1;
#X text 164 232 1...-1...1;
#X text 274 41 From Guido on the Pd Patch Repo forums;
#X obj 103 263 outlet~;
#X obj 103 78 inlet;
#X text 275 65 https://forum.pdpatchrepo.info/topic/6734/making-basic-waveforms-from-a-phasor
;
#X connect 0 0 1 0;
#X connect 1 0 4 0;
#X connect 4 0 6 0;
#X connect 6 0 8 0;
#X connect 8 0 11 0;
#X connect 12 0 0 0;
#X restore 89 231 pd tri;
#X obj 71 267 *~;
#X obj 340 274 *~;
#X obj 89 186 +;
#X obj 159 167 t b f;
#X obj 159 107 metro 500;
#X obj 159 143 random 750;
#N canvas 78 26 771 550 tri 0;
#X obj 103 111 phasor~;
#X obj 103 146 -~ 0.5;
#X text 168 116 0...1;
#X text 160 147 -0.5...0.5;
#X obj 103 175 abs~;
#X text 161 174 0.5...0...0.5;
#X obj 103 203 *~ 4;
#X text 163 201 2...0...2;
#X obj 103 233 -~ 1;
#X text 164 232 1...-1...1;
#X text 274 41 From Guido on the Pd Patch Repo forums;
#X obj 103 263 outlet~;
#X obj 103 78 inlet;
#X text 275 65 https://forum.pdpatchrepo.info/topic/6734/making-basic-waveforms-from-a-phasor
;
#X connect 0 0 1 0;
#X connect 1 0 4 0;
#X connect 4 0 6 0;
#X connect 6 0 8 0;
#X connect 8 0 11 0;
#X connect 12 0 0 0;
#X restore 358 241 pd tri;
#X obj 359 186 +;
#X obj 430 167 t b f;
#X obj 430 109 metro 500;
#X obj 430 143 random 750;
#X msg 89 156 500;
#X obj 89 131 loadbang;
#X msg 359 156 500;
#X obj 359 131 loadbang;
#X obj 430 58 inlet toggle;
#X obj 38 55 inlet~ AMinl;
#X obj 312 47 inlet~ AMinr;
#X obj 32 360 outlet~ AMoutl;
#X obj 307 368 outlet~ AMoutr;
#X obj 243 115 loadbang;
#X obj 513 117 loadbang;
#X obj 585 292 inlet~ AMmix;
#N canvas 0 25 532 496 crossfade 0;
#X obj 85 66 inlet~;
#X obj 253 70 inlet~;
#X obj 174 374 outlet~;
#X obj 188 184 -~ 1;
#X obj 102 233 -~ 1;
#X obj 271 233 +~ 1;
#X obj 84 301 *~;
#X obj 253 301 *~;
#X obj 102 268 *~ -0.5;
#X obj 271 268 *~ 0.5;
#X text 303 110 Converts number inlet into a signal so it is a smooth
transition without crackles, f 28;
#X text 123 184 -1 to 1;
#X text 321 233 0 to 2;
#X text 330 267 0 to 1;
#X text 140 233 -2 to 0;
#X text 162 268 1 to 0;
#X text 286 304 gR;
#X text 116 303 gL;
#X text 129 154 0 to 2;
#X obj 188 153 *~ 2;
#X obj 332 69 inlet~ position;
#X connect 0 0 6 0;
#X connect 1 0 7 0;
#X connect 3 0 4 0;
#X connect 3 0 5 0;
#X connect 4 0 8 0;
#X connect 5 0 9 0;
#X connect 6 0 2 0;
#X connect 7 0 2 0;
#X connect 8 0 6 1;
#X connect 9 0 7 1;
#X connect 19 0 3 0;
#X connect 20 0 19 0;
#X restore 306 325 pd crossfade;
#N canvas 0 25 532 496 crossfade 0;
#X obj 85 66 inlet~;
#X obj 253 70 inlet~;
#X obj 174 374 outlet~;
#X obj 188 184 -~ 1;
#X obj 102 233 -~ 1;
#X obj 271 233 +~ 1;
#X obj 84 301 *~;
#X obj 253 301 *~;
#X obj 102 268 *~ -0.5;
#X obj 271 268 *~ 0.5;
#X text 303 110 Converts number inlet into a signal so it is a smooth
transition without crackles, f 28;
#X text 123 184 -1 to 1;
#X text 321 233 0 to 2;
#X text 330 267 0 to 1;
#X text 140 233 -2 to 0;
#X text 162 268 1 to 0;
#X text 286 304 gR;
#X text 116 303 gL;
#X text 129 154 0 to 2;
#X obj 188 153 *~ 2;
#X obj 332 69 inlet~ position;
#X connect 0 0 6 0;
#X connect 1 0 7 0;
#X connect 3 0 4 0;
#X connect 3 0 5 0;
#X connect 4 0 8 0;
#X connect 5 0 9 0;
#X connect 6 0 2 0;
#X connect 7 0 2 0;
#X connect 8 0 6 1;
#X connect 9 0 7 1;
#X connect 19 0 3 0;
#X connect 20 0 19 0;
#X restore 32 320 pd crossfade;
#X connect 0 0 1 1;
#X connect 1 0 25 1;
#X connect 2 0 24 1;
#X connect 3 0 0 0;
#X connect 4 0 3 0;
#X connect 4 1 3 1;
#X connect 5 0 6 0;
#X connect 6 0 4 0;
#X connect 7 0 2 1;
#X connect 8 0 7 0;
#X connect 9 0 8 0;
#X connect 9 1 8 1;
#X connect 10 0 11 0;
#X connect 11 0 9 0;
#X connect 12 0 3 0;
#X connect 13 0 12 0;
#X connect 14 0 8 0;
#X connect 15 0 14 0;
#X connect 16 0 10 0;
#X connect 16 0 5 0;
#X connect 17 0 1 0;
#X connect 17 0 25 0;
#X connect 18 0 2 0;
#X connect 18 0 24 0;
#X connect 21 0 6 0;
#X connect 22 0 11 0;
#X connect 23 0 24 2;
#X connect 23 0 25 2;
#X connect 24 0 20 0;
#X connect 25 0 19 0;
#X restore 57 243 pd AMstage;
#N canvas 274 209 1126 595 ClipPulse 0;
#X obj 606 184 inlet UpperClip;
#X obj 479 182 inlet LowerClip;
#X obj 77 246 *~;
#X obj 236 247 *~;
#N canvas 168 42 771 550 tri 0;
#X obj 103 111 phasor~;
#X obj 103 146 -~ 0.5;
#X text 168 116 0...1;
#X text 160 147 -0.5...0.5;
#X obj 103 175 abs~;
#X text 161 174 0.5...0...0.5;
#X obj 103 203 *~ 4;
#X text 163 201 2...0...2;
#X obj 103 233 -~ 1;
#X text 164 232 1...-1...1;
#X text 274 41 From Guido on the Pd Patch Repo forums;
#X obj 103 263 outlet~;
#X obj 103 78 inlet;
#X text 275 65 https://forum.pdpatchrepo.info/topic/6734/making-basic-waveforms-from-a-phasor
;
#X connect 0 0 1 0;
#X connect 1 0 4 0;
#X connect 4 0 6 0;
#X connect 6 0 8 0;
#X connect 8 0 11 0;
#X connect 12 0 0 0;
#X restore 399 88 pd tri;
#X obj 399 177 +~ 1;
#X obj 77 54 inlet~ ClipPulseLin;
#X obj 236 53 inlet~ ClipPulseRin;
#X obj 37 460 outlet~ ClipPulseLout;
#X obj 212 460 outlet~ ClipPulseRout;
#X obj 749 318 inlet~ ClipPulseMix;
#N canvas 0 25 532 496 crossfade 0;
#X obj 85 66 inlet~;
#X obj 253 70 inlet~;
#X obj 174 374 outlet~;
#X obj 188 184 -~ 1;
#X obj 102 233 -~ 1;
#X obj 271 233 +~ 1;
#X obj 84 301 *~;
#X obj 253 301 *~;
#X obj 102 268 *~ -0.5;
#X obj 271 268 *~ 0.5;
#X text 303 110 Converts number inlet into a signal so it is a smooth
transition without crackles, f 28;
#X text 123 184 -1 to 1;
#X text 321 233 0 to 2;
#X text 330 267 0 to 1;
#X text 140 233 -2 to 0;
#X text 162 268 1 to 0;
#X text 286 304 gR;
#X text 116 303 gL;
#X text 129 154 0 to 2;
#X obj 188 153 *~ 2;
#X obj 332 69 inlet~ position;
#X connect 0 0 6 0;
#X connect 1 0 7 0;
#X connect 3 0 4 0;
#X connect 3 0 5 0;
#X connect 4 0 8 0;
#X connect 5 0 9 0;
#X connect 6 0 2 0;
#X connect 7 0 2 0;
#X connect 8 0 6 1;
#X connect 9 0 7 1;
#X connect 19 0 3 0;
#X connect 20 0 19 0;
#X restore 212 421 pd crossfade;
#N canvas 0 25 532 496 crossfade 0;
#X obj 85 66 inlet~;
#X obj 253 70 inlet~;
#X obj 174 374 outlet~;
#X obj 188 184 -~ 1;
#X obj 102 233 -~ 1;
#X obj 271 233 +~ 1;
#X obj 84 301 *~;
#X obj 253 301 *~;
#X obj 102 268 *~ -0.5;
#X obj 271 268 *~ 0.5;
#X text 303 110 Converts number inlet into a signal so it is a smooth
transition without crackles, f 28;
#X text 123 184 -1 to 1;
#X text 321 233 0 to 2;
#X text 330 267 0 to 1;
#X text 140 233 -2 to 0;
#X text 162 268 1 to 0;
#X text 286 304 gR;
#X text 116 303 gL;
#X text 129 154 0 to 2;
#X obj 188 153 *~ 2;
#X obj 332 69 inlet~ position;
#X connect 0 0 6 0;
#X connect 1 0 7 0;
#X connect 3 0 4 0;
#X connect 3 0 5 0;
#X connect 4 0 8 0;
#X connect 5 0 9 0;
#X connect 6 0 2 0;
#X connect 7 0 2 0;
#X connect 8 0 6 1;
#X connect 9 0 7 1;
#X connect 19 0 3 0;
#X connect 20 0 19 0;
#X restore 37 400 pd crossfade;
#X obj 399 128 clip~ 0 1;
#X obj 77 331 clip~;
#X obj 236 328 clip~;
#X obj 399 152 *~ 5;
#X obj 399 53 inlet PulseFrequency;
#X connect 0 0 15 2;
#X connect 0 0 14 2;
#X connect 1 0 15 1;
#X connect 1 0 14 1;
#X connect 2 0 14 0;
#X connect 3 0 15 0;
#X connect 4 0 13 0;
#X connect 5 0 2 1;
#X connect 5 0 3 1;
#X connect 6 0 2 0;
#X connect 6 0 12 0;
#X connect 7 0 3 0;
#X connect 7 0 11 0;
#X connect 10 0 11 2;
#X connect 10 0 12 2;
#X connect 11 0 9 0;
#X connect 12 0 8 0;
#X connect 13 0 16 0;
#X connect 14 0 12 1;
#X connect 15 0 11 1;
#X connect 16 0 5 0;
#X connect 17 0 4 0;
#X restore 57 642 pd ClipPulse;
#X f 23;
#N canvas 406 77 846 562 vibrato 0;
#X obj 35 78 inlet~ VibratoLin;
#X obj 302 74 inlet~ VibratoRin;
#X obj 34 436 outlet~ VibratoLout;
#X obj 304 439 outlet~ VibratoRout;
#X obj 68 152 delwrite~ vibratoL 1000;
#X obj 336 146 delwrite~ vibratoR 1000;
#X obj 74 341 delread4~ vibratoL;
#X obj 74 290 +~ 1;
#X obj 74 314 *~;
#X obj 344 294 +~ 1;
#X obj 344 318 *~;
#X obj 344 345 delread4~ vibratoR;
#N canvas 78 26 771 550 tri 0;
#X obj 103 111 phasor~;
#X obj 103 146 -~ 0.5;
#X text 168 116 0...1;
#X text 160 147 -0.5...0.5;
#X obj 103 175 abs~;
#X text 161 174 0.5...0...0.5;
#X obj 103 203 *~ 4;
#X text 163 201 2...0...2;
#X obj 103 233 -~ 1;
#X text 164 232 1...-1...1;
#X text 274 41 From Guido on the Pd Patch Repo forums;
#X obj 103 263 outlet~;
#X obj 103 78 inlet;
#X text 275 65 https://forum.pdpatchrepo.info/topic/6734/making-basic-waveforms-from-a-phasor
;
#X connect 0 0 1 0;
#X connect 1 0 4 0;
#X connect 4 0 6 0;
#X connect 6 0 8 0;
#X connect 8 0 11 0;
#X connect 12 0 0 0;
#X restore 543 136 pd tri;
#X obj 543 162 clip~ 0 1;
#X obj 543 211 +~ 1;
#X obj 543 186 *~ 5;
#X obj 543 84 random 100;
#X obj 543 60 metro 2000;
#X obj 543 29 inlet metrotoggle;
#X obj 543 110 / 100;
#X obj 663 135 / 25;
#X obj 663 216 pack f 30;
#X obj 663 242 line~;
#X obj 663 107 random 50;
#X obj 663 164 + 1;
#X obj 749 140 / 25;
#X obj 749 112 random 50;
#X obj 749 169 + 1;
#X obj 749 215 pack f 30;
#X obj 749 241 line~;
#X obj 643 340 inlet~ vibratomix;
#N canvas 0 25 532 496 crossfade 0;
#X obj 85 66 inlet~;
#X obj 253 70 inlet~;
#X obj 174 374 outlet~;
#X obj 188 184 -~ 1;
#X obj 102 233 -~ 1;
#X obj 271 233 +~ 1;
#X obj 84 301 *~;
#X obj 253 301 *~;
#X obj 102 268 *~ -0.5;
#X obj 271 268 *~ 0.5;
#X text 303 110 Converts number inlet into a signal so it is a smooth
transition without crackles, f 28;
#X text 123 184 -1 to 1;
#X text 321 233 0 to 2;
#X text 330 267 0 to 1;
#X text 140 233 -2 to 0;
#X text 162 268 1 to 0;
#X text 286 304 gR;
#X text 116 303 gL;
#X text 129 154 0 to 2;
#X obj 188 153 *~ 2;
#X obj 332 69 inlet~ position;
#X connect 0 0 6 0;
#X connect 1 0 7 0;
#X connect 3 0 4 0;
#X connect 3 0 5 0;
#X connect 4 0 8 0;
#X connect 5 0 9 0;
#X connect 6 0 2 0;
#X connect 7 0 2 0;
#X connect 8 0 6 1;
#X connect 9 0 7 1;
#X connect 19 0 3 0;
#X connect 20 0 19 0;
#X restore 304 399 pd crossfade;
#N canvas 0 25 532 496 crossfade 0;
#X obj 85 66 inlet~;
#X obj 253 70 inlet~;
#X obj 174 374 outlet~;
#X obj 188 184 -~ 1;
#X obj 102 233 -~ 1;
#X obj 271 233 +~ 1;
#X obj 84 301 *~;
#X obj 253 301 *~;
#X obj 102 268 *~ -0.5;
#X obj 271 268 *~ 0.5;
#X text 303 110 Converts number inlet into a signal so it is a smooth
transition without crackles, f 28;
#X text 123 184 -1 to 1;
#X text 321 233 0 to 2;
#X text 330 267 0 to 1;
#X text 140 233 -2 to 0;
#X text 162 268 1 to 0;
#X text 286 304 gR;
#X text 116 303 gL;
#X text 129 154 0 to 2;
#X obj 188 153 *~ 2;
#X obj 332 69 inlet~ position;
#X connect 0 0 6 0;
#X connect 1 0 7 0;
#X connect 3 0 4 0;
#X connect 3 0 5 0;
#X connect 4 0 8 0;
#X connect 5 0 9 0;
#X connect 6 0 2 0;
#X connect 7 0 2 0;
#X connect 8 0 6 1;
#X connect 9 0 7 1;
#X connect 19 0 3 0;
#X connect 20 0 19 0;
#X restore 34 397 pd crossfade;
#X obj 74 265 osc~ 3;
#X obj 344 262 osc~ 2;
#X obj 701 69 metro 2000;
#X connect 0 0 4 0;
#X connect 0 0 32 0;
#X connect 1 0 5 0;
#X connect 1 0 31 0;
#X connect 6 0 32 1;
#X connect 7 0 8 0;
#X connect 8 0 6 0;
#X connect 9 0 10 0;
#X connect 10 0 11 0;
#X connect 11 0 31 1;
#X connect 12 0 13 0;
#X connect 13 0 15 0;
#X connect 14 0 33 0;
#X connect 14 0 34 0;
#X connect 15 0 14 0;
#X connect 16 0 19 0;
#X connect 17 0 16 0;
#X connect 18 0 17 0;
#X connect 18 0 35 0;
#X connect 19 0 12 0;
#X connect 20 0 24 0;
#X connect 21 0 22 0;
#X connect 22 0 8 1;
#X connect 23 0 20 0;
#X connect 24 0 21 0;
#X connect 25 0 27 0;
#X connect 26 0 25 0;
#X connect 27 0 28 0;
#X connect 28 0 29 0;
#X connect 29 0 10 1;
#X connect 30 0 31 2;
#X connect 30 0 32 2;
#X connect 31 0 3 0;
#X connect 32 0 2 0;
#X connect 33 0 7 0;
#X connect 34 0 9 0;
#X connect 35 0 23 0;
#X connect 35 0 26 0;
#X restore 57 148 pd vibrato;
#X text 288 407 Filter Stage - Uses pulses to make a slight panning
style effect using filters. Not very filtery though. 3rd inlet is toggle
to make effect start. 4th inlet is same wet/dry mix as before.;
#N canvas 594 216 846 562 vibrato2 0;
#X obj 75 257 osc~;
#X obj 75 282 +~ 1;
#X obj 75 306 *~;
#X obj 342 262 osc~;
#X obj 342 287 +~ 1;
#X obj 342 311 *~;
#N canvas 78 26 771 550 tri 0;
#X obj 103 111 phasor~;
#X obj 103 146 -~ 0.5;
#X text 168 116 0...1;
#X text 160 147 -0.5...0.5;
#X obj 103 175 abs~;
#X text 161 174 0.5...0...0.5;
#X obj 103 203 *~ 4;
#X text 163 201 2...0...2;
#X obj 103 233 -~ 1;
#X text 164 232 1...-1...1;
#X text 274 41 From Guido on the Pd Patch Repo forums;
#X obj 103 263 outlet~;
#X obj 103 78 inlet;
#X text 275 65 https://forum.pdpatchrepo.info/topic/6734/making-basic-waveforms-from-a-phasor
;
#X connect 0 0 1 0;
#X connect 1 0 4 0;
#X connect 4 0 6 0;
#X connect 6 0 8 0;
#X connect 8 0 11 0;
#X connect 12 0 0 0;
#X restore 543 165 pd tri;
#X obj 543 191 clip~ 0 1;
#X obj 543 240 +~ 1;
#X obj 543 215 *~ 5;
#X obj 543 84 random 100;
#X obj 543 60 metro 2000;
#X obj 543 29 inlet metrotoggle;
#X obj 543 110 / 100;
#X obj 663 135 / 25;
#X obj 663 216 pack f 30;
#X obj 663 242 line~;
#X obj 701 73 metro 500;
#X obj 663 107 random 50;
#X obj 663 164 + 1;
#X obj 749 140 / 25;
#X obj 749 112 random 50;
#X obj 749 169 + 1;
#X obj 749 215 pack f 30;
#X obj 749 241 line~;
#X obj 35 78 inlet~ Vibrato2Lin;
#X obj 302 74 inlet~ Vibrato2Rin;
#X obj 35 442 outlet~ Vibrato2Lout;
#X obj 302 439 outlet~ Vibrato2Rout;
#X obj 342 338 delread4~ vibrato2R;
#X obj 75 333 delread4~ vibrato2L;
#X obj 68 152 delwrite~ vibrato2L 1000;
#X obj 336 146 delwrite~ vibrato2R 1000;
#X obj 643 340 inlet~ vibrato2mix;
#N canvas 0 25 532 496 crossfade 0;
#X obj 85 66 inlet~;
#X obj 253 70 inlet~;
#X obj 174 374 outlet~;
#X obj 188 184 -~ 1;
#X obj 102 233 -~ 1;
#X obj 271 233 +~ 1;
#X obj 84 301 *~;
#X obj 253 301 *~;
#X obj 102 268 *~ -0.5;
#X obj 271 268 *~ 0.5;
#X text 303 110 Converts number inlet into a signal so it is a smooth
transition without crackles, f 28;
#X text 123 184 -1 to 1;
#X text 321 233 0 to 2;
#X text 330 267 0 to 1;
#X text 140 233 -2 to 0;
#X text 162 268 1 to 0;
#X text 286 304 gR;
#X text 116 303 gL;
#X text 129 154 0 to 2;
#X obj 188 153 *~ 2;
#X obj 332 69 inlet~ position;
#X connect 0 0 6 0;
#X connect 1 0 7 0;
#X connect 3 0 4 0;
#X connect 3 0 5 0;
#X connect 4 0 8 0;
#X connect 5 0 9 0;
#X connect 6 0 2 0;
#X connect 7 0 2 0;
#X connect 8 0 6 1;
#X connect 9 0 7 1;
#X connect 19 0 3 0;
#X connect 20 0 19 0;
#X restore 302 399 pd crossfade;
#N canvas 0 25 532 496 crossfade 0;
#X obj 85 66 inlet~;
#X obj 253 70 inlet~;
#X obj 174 374 outlet~;
#X obj 188 184 -~ 1;
#X obj 102 233 -~ 1;
#X obj 271 233 +~ 1;
#X obj 84 301 *~;
#X obj 253 301 *~;
#X obj 102 268 *~ -0.5;
#X obj 271 268 *~ 0.5;
#X text 303 110 Converts number inlet into a signal so it is a smooth
transition without crackles, f 28;
#X text 123 184 -1 to 1;
#X text 321 233 0 to 2;
#X text 330 267 0 to 1;
#X text 140 233 -2 to 0;
#X text 162 268 1 to 0;
#X text 286 304 gR;
#X text 116 303 gL;
#X text 129 154 0 to 2;
#X obj 188 153 *~ 2;
#X obj 332 69 inlet~ position;
#X connect 0 0 6 0;
#X connect 1 0 7 0;
#X connect 3 0 4 0;
#X connect 3 0 5 0;
#X connect 4 0 8 0;
#X connect 5 0 9 0;
#X connect 6 0 2 0;
#X connect 7 0 2 0;
#X connect 8 0 6 1;
#X connect 9 0 7 1;
#X connect 19 0 3 0;
#X connect 20 0 19 0;
#X restore 35 392 pd crossfade;
#X connect 0 0 1 0;
#X connect 1 0 2 0;
#X connect 2 0 30 0;
#X connect 3 0 4 0;
#X connect 4 0 5 0;
#X connect 5 0 29 0;
#X connect 6 0 7 0;
#X connect 7 0 9 0;
#X connect 8 0 3 0;
#X connect 8 0 0 0;
#X connect 9 0 8 0;
#X connect 10 0 13 0;
#X connect 11 0 10 0;
#X connect 12 0 11 0;
#X connect 12 0 17 0;
#X connect 13 0 6 0;
#X connect 14 0 19 0;
#X connect 15 0 16 0;
#X connect 16 0 2 1;
#X connect 17 0 18 0;
#X connect 17 0 21 0;
#X connect 18 0 14 0;
#X connect 19 0 15 0;
#X connect 20 0 22 0;
#X connect 21 0 20 0;
#X connect 22 0 23 0;
#X connect 23 0 24 0;
#X connect 24 0 5 1;
#X connect 25 0 31 0;
#X connect 25 0 35 0;
#X connect 26 0 32 0;
#X connect 26 0 34 0;
#X connect 29 0 34 1;
#X connect 30 0 35 1;
#X connect 33 0 34 2;
#X connect 33 0 35 2;
#X connect 34 0 28 0;
#X connect 35 0 27 0;
#X restore 57 534 pd vibrato2;
#N canvas 654 266 673 441 reverb 0;
#X obj 47 35 inlet~ reverbLin;
#X obj 221 36 inlet~ reverbRIn;
#X obj 276 213 rev3~ 100 85 900 0;
#X obj 358 95 inlet decay;
#X obj 358 143 clip 0 100;
#X obj 239 377 outlet~ reverbRout;
#X obj 54 387 outlet~ reverbLout;
#X obj 502 230 inlet~ reverbMix;
#N canvas 0 25 532 496 crossfade 0;
#X obj 85 66 inlet~;
#X obj 253 70 inlet~;
#X obj 174 374 outlet~;
#X obj 188 184 -~ 1;
#X obj 102 233 -~ 1;
#X obj 271 233 +~ 1;
#X obj 84 301 *~;
#X obj 253 301 *~;
#X obj 102 268 *~ -0.5;
#X obj 271 268 *~ 0.5;
#X text 303 110 Converts number inlet into a signal so it is a smooth
transition without crackles, f 28;
#X text 123 184 -1 to 1;
#X text 321 233 0 to 2;
#X text 330 267 0 to 1;
#X text 140 233 -2 to 0;
#X text 162 268 1 to 0;
#X text 286 304 gR;
#X text 116 303 gL;
#X text 129 154 0 to 2;
#X obj 188 153 *~ 2;
#X obj 332 69 inlet~ position;
#X connect 0 0 6 0;
#X connect 1 0 7 0;
#X connect 3 0 4 0;
#X connect 3 0 5 0;
#X connect 4 0 8 0;
#X connect 5 0 9 0;
#X connect 6 0 2 0;
#X connect 7 0 2 0;
#X connect 8 0 6 1;
#X connect 9 0 7 1;
#X connect 19 0 3 0;
#X connect 20 0 19 0;
#X restore 239 307 pd crossfade;
#N canvas 0 25 532 496 crossfade 0;
#X obj 85 66 inlet~;
#X obj 253 70 inlet~;
#X obj 174 374 outlet~;
#X obj 188 184 -~ 1;
#X obj 102 233 -~ 1;
#X obj 271 233 +~ 1;
#X obj 84 301 *~;
#X obj 253 301 *~;
#X obj 102 268 *~ -0.5;
#X obj 271 268 *~ 0.5;
#X text 303 110 Converts number inlet into a signal so it is a smooth
transition without crackles, f 28;
#X text 123 184 -1 to 1;
#X text 321 233 0 to 2;
#X text 330 267 0 to 1;
#X text 140 233 -2 to 0;
#X text 162 268 1 to 0;
#X text 286 304 gR;
#X text 116 303 gL;
#X text 129 154 0 to 2;
#X obj 188 153 *~ 2;
#X obj 332 69 inlet~ position;
#X connect 0 0 6 0;
#X connect 1 0 7 0;
#X connect 3 0 4 0;
#X connect 3 0 5 0;
#X connect 4 0 8 0;
#X connect 5 0 9 0;
#X connect 6 0 2 0;
#X connect 7 0 2 0;
#X connect 8 0 6 1;
#X connect 9 0 7 1;
#X connect 19 0 3 0;
#X connect 20 0 19 0;
#X restore 51 304 pd crossfade;
#X connect 0 0 2 0;
#X connect 0 0 9 0;
#X connect 1 0 2 1;
#X connect 1 0 8 0;
#X connect 2 0 9 1;
#X connect 2 1 8 1;
#X connect 3 0 4 0;
#X connect 4 0 2 3;
#X connect 7 0 8 2;
#X connect 7 0 9 2;
#X connect 8 0 5 0;
#X connect 9 0 6 0;
#X restore 57 368 pd reverb;
#X obj 57 32 inlet~ L;
#X obj 79 57 inlet~ R;
#X obj 57 751 outlet~ L;
#X obj 142 751 outlet~ R;
#X obj 101 84 r vibtoggle;
#X obj 163 105 r vibmix;
#X obj 101 180 r amtoggle;
#X obj 156 201 r ammix;
#X obj 97 285 r revdecay;
#X obj 154 327 r revmix;
#X obj 120 389 r filtoggle;
#X obj 198 411 r filmix;
#X obj 106 480 r vib2toggle;
#X obj 202 493 r vib2mix;
#X obj 111 568 r clipfreq;
#X obj 265 592 r clipmix;
#X obj 163 129 line~;
#X obj 156 224 line~;
#X obj 154 349 line~;
#X obj 198 433 line~;
#X obj 202 515 line~;
#X obj 265 623 line~;
#X obj 188 544 r upcliplevel;
#X obj 151 589 r lowcliplevel;
#X text 285 144 Vibrato - Basic Vibrato that has a toggle for generating
random parameter values for the depth and delay time on 3rd inlet.
Also has wet/dry mix on 4th inlet so it can do a chorus when set between
0 and 1 (like 0.5-0.6).;
#X text 284 218 AM Stage - Go for like a ring mod style effect since
that is kind of like really fast pulses. Triangle wave is from online
(Credited in subpatch). Toggle on third inlet is for randomizing the
modulator frequency. The right number box is a wet/dry mix (0 for fully
dry \, 1 for fully wet).;
#X text 287 330 Reverb - Basic built in rev3~ reverb with an added
wet/dry mix. 3rd inlet is the reverb decay time (liveliness) and 4th
inlet is wet/dry mix.;
#X text 292 502 Vibrato 2 - Just a second vibrato stage to use as a
chorus or to get really wacky with double vibrato. Same patch as the
first vibrato;
#X text 345 571 ClipPulse - Pulse that increases the amplitude (from
1 to 5 with a positive only triangle wave) and pushes the audio past
a clip level. First two inlets are left and right in \, 3rd inlet is
pulse frequency \, 4th and 5th inlets are the lower and upper bounds
of the clipping (defaults to -1 \, 1). 6th inlet is wet/dry mix.;
#X obj 229 660 r master;
#X text 281 48 All the objects last inlet is a crossfade. It is set
so that 0 is completely dry \, 1 is completely wet \, and anything
in between is a mix. Each object should have more info next to it on
it's specific parameters.;
#X obj 229 687 line~;
#X obj 111 614 line;
#X obj 188 614 line;
#X obj 151 614 line;
#X obj 97 331 line;
#X text 351 730 Created by Dominic Frugoli - December 2022;
#X connect 0 0 11 0;
#X connect 1 0 12 0;
#X connect 2 0 7 0;
#X connect 2 1 7 1;
#X connect 3 0 8 0;
#X connect 3 1 8 1;
#X connect 4 0 0 0;
#X connect 4 1 1 0;
#X connect 5 0 3 0;
#X connect 5 1 3 1;
#X connect 7 0 4 0;
#X connect 7 1 4 1;
#X connect 8 0 2 0;
#X connect 8 1 2 1;
#X connect 9 0 5 0;
#X connect 10 0 5 1;
#X connect 13 0 5 2;
#X connect 14 0 25 0;
#X connect 15 0 3 2;
#X connect 16 0 26 0;
#X connect 17 0 44 0;
#X connect 18 0 27 0;
#X connect 19 0 2 2;
#X connect 20 0 28 0;
#X connect 21 0 7 2;
#X connect 22 0 29 0;
#X connect 23 0 41 0;
#X connect 24 0 30 0;
#X connect 25 0 5 3;
#X connect 26 0 3 3;
#X connect 27 0 8 3;
#X connect 28 0 2 3;
#X connect 29 0 7 3;
#X connect 30 0 4 5;
#X connect 31 0 42 0;
#X connect 32 0 43 0;
#X connect 38 0 40 0;
#X connect 40 0 1 1;
#X connect 40 0 0 1;
#X connect 41 0 4 2;
#X connect 42 0 4 4;
#X connect 43 0 4 3;
#X connect 44 0 8 2;
